<svg width="auto" height="auto" viewBox="0 0 26 14" fill="none" xmlns="http://www.w3.org/2000/svg">
<mask id="mask0_749_28177" style="mask-type:alpha" maskUnits="userSpaceOnUse" x="0" y="1" width="25" height="12">
<path fill-rule="evenodd" clip-rule="evenodd" d="M12.2475 6.16516C12.2237 6.1188 12.2203 6.06456 12.2382 6.0156L13.058 3.78031C13.2451 3.27011 12.5987 2.86977 12.2253 3.2646L8.79748 6.88934C8.49601 7.20812 8.72201 7.73289 9.16076 7.73289H10.5861C10.656 7.73289 10.72 7.77198 10.7518 7.83413C10.7756 7.88038 10.7789 7.93445 10.761 7.98325L9.94117 10.2191C9.7541 10.7293 10.4005 11.1296 10.7739 10.7348L14.202 7.10977C14.5035 6.79099 14.2775 6.26622 13.8387 6.26622H12.4133C12.3435 6.26622 12.2795 6.22722 12.2475 6.16516ZM6.83874 8.73289H9.42103L8.16614 12.1553L7.84221 13H0V1H12.9906L6.47546 7.88934C6.17399 8.20813 6.39999 8.73289 6.83874 8.73289ZM15.1571 1L14.8333 1.84388L13.5782 5.26622H16.1608C16.5995 5.26622 16.8255 5.79099 16.524 6.10977L10.0081 13H25V1H15.1571Z" fill="#D9D9D9"/>
</mask>
<g mask="url(#mask0_749_28177)">
<path d="M23 5.8C23 5.35817 23.3358 5 23.75 5C24.1642 5 24.5 5.35817 24.5 5.8V8.2C24.5 8.64183 24.1642 9 23.75 9C23.3358 9 23 8.64183 23 8.2V5.8Z" fill="#666666"/>
<rect x="1.25" y="2.25" width="20.5" height="9.5" rx="2.20185" stroke="#666666" stroke-width="1.5"/>
<rect x="3" y="4" width="2" height="6" rx="1" fill="#10C550"/>
<rect x="3" y="4" width="2" height="6" rx="1" fill="white" fill-opacity="0.08"/>
</g>
<path fill-rule="evenodd" clip-rule="evenodd" d="M12.2998 6.26645H15L9.10526 12.4998L10.7893 7.90692L10.7002 7.73312H8L13.8947 1.49979L12.2103 6.09265L12.2998 6.26645Z" fill="white" fill-opacity="0.8"/>
<path fill-rule="evenodd" clip-rule="evenodd" d="M12.2998 6.26667H15L9.10526 12.5L10.7893 7.90713L10.7002 7.73333H8L13.8947 1.5L12.2103 6.09287L12.2998 6.26667Z" fill="black"/>
</svg>
